<?xml version="1.0" encoding="UTF-8"?>
<svg width="160" height="48" xmlns="http://www.w3.org/2000/svg">
    <path d="M35.6 32.6c-4.1 3-10 4.6-15.1 4.6-7.2 0-13.6-2.7-18.5-7.1-.4-.3 0-.8.4-.5 5.3 3.1 11.8 4.9 18.6 4.9 4.6 0 9.6-.9 14.2-2.9.7-.3 1.3.5.4 1z" fill="#000"/>
    <path d="M37.4 30.5c-.5-.7-3.5-.3-4.8-.2-.4 0-.5-.3-.1-.6 2.3-1.6 6.2-1.2 6.6-.6.4.6-.1 4.5-2.4 6.3-.3.3-.7.1-.5-.2.5-1.2 1.6-4 1.2-4.7z" fill="#000"/>
    <path d="M33.9 7.1v-2c0-.3.2-.5.5-.5h9.3c.3 0 .5.2.5.5v1.7c0 .3-.3.7-.7 1.3l-4.8 6.9c1.8-.1 3.7.2 5.3 1.1.4.2.5.5.5.7v2.1c0 .3-.3.6-.6.4-2.9-1.5-6.7-1.7-9.9 0-.3.2-.7-.1-.7-.4v-2c0-.3 0-.8.3-1.3l5.6-8h-4.8c-.3.1-.5-.1-.5-.4z" fill="#000"/>
    <path d="M121.2 28.1h-2.8c-.3 0-.5-.2-.5-.5V15.3c0-.3.2-.5.5-.5h2.6c.3 0 .5.2.5.4v1.6h.1c.7-1.8 2-2.6 3.7-2.6 1.8 0 2.9.8 3.7 2.6.7-1.8 2.3-2.6 4-2.6 1.2 0 2.5.5 3.3 1.6.9 1.2.7 3 .7 4.6v9.2c0 .3-.2.5-.5.5h-2.8c-.3 0-.5-.2-.5-.5v-7.7c0-.6.1-2.1-.1-2.7-.3-1-.9-1.2-1.8-1.2-.7 0-1.5.5-1.8 1.3s-.2 2.1-.2 2.6v7.7c0 .3-.2.5-.5.5h-2.8c-.3 0-.5-.2-.5-.5v-7.7c0-1.6.3-4-1.9-4-2.2 0-2.1 2.3-2.1 4v7.7c.1.3-.1.5-.4.5z" fill="#000"/>
    <path d="M69.8 14.8c4.1 0 6.4 3.5 6.4 8 0 4.3-2.5 7.8-6.4 7.8-4.1 0-6.3-3.5-6.3-7.9-.1-4.4 2.2-7.9 6.3-7.9zm0 2.9c-2.1 0-2.2 2.8-2.2 4.6s0 5.5 2.2 5.5c2.2 0 2.3-3.1 2.3-4.9 0-1.2-.1-2.7-.4-3.8-.3-1-1-1.4-1.9-1.4z" fill="#000"/>
    <path d="M80.3 28.1h-2.8c-.3 0-.5-.2-.5-.5V15.3c0-.3.2-.5.5-.5H80c.3 0 .5.2.5.4v1.6h.1c.7-1.8 1.7-2.6 3.5-2.6 1.2 0 2.3.4 3 1.3.7.9.7 2.4.7 3.5v9.1c0 .3-.2.5-.5.5h-2.8c-.3 0-.5-.2-.5-.5v-7.9c0-1.6.2-3.9-1.8-3.9-.7 0-1.3.5-1.6 1.2-.4.9-.4 1.8-.4 2.7v7.8c0 .4-.2.6-.4.6z" fill="#000"/>
    <path d="M95.5 14.8c4.1 0 6.4 3.5 6.4 8 0 4.3-2.5 7.8-6.4 7.8-4.1 0-6.3-3.5-6.3-7.9-.1-4.4 2.2-7.9 6.3-7.9zm0 2.9c-2.1 0-2.2 2.8-2.2 4.6s0 5.5 2.2 5.5c2.2 0 2.3-3.1 2.3-4.9 0-1.2-.1-2.7-.4-3.8-.3-1-1-1.4-1.9-1.4z" fill="#000"/>
    <path d="M106 28.1h-2.8c-.3 0-.5-.2-.5-.5V8.6c0-.3.2-.5.5-.5h2.6c.3 0 .5.2.5.4v3.1h.1c.8-2 1.9-2.9 3.8-2.9 1.3 0 2.5.4 3.3 1.6.7 1.1.7 3 .7 4.3v9c0 .3-.2.5-.5.5h-2.8c-.3 0-.5-.2-.5-.5v-7.7c0-1.6.2-3.9-1.8-3.9-.7 0-1.3.5-1.6 1.2-.4.9-.4 1.8-.4 2.7v7.7c0 .3-.3.5-.6.5z" fill="#000"/>
    <path d="M143.7 23.9c-.2-.3-.4-.3-.6-.1-1 .8-1.6 1-2.9 1-1.5 0-2.7-1-2.7-2.5 0-1.3.7-2.2 1.7-2.6 1-.4 2.3-.5 3.3-.6v-.2c0-.4 0-.9-.2-1.3-.2-.3-.6-.5-1-.5-.7 0-1.3.4-1.4 1.1-.1.3-.3.5-.5.5l-2.7-.3c-.2 0-.5-.2-.4-.6.6-3.3 3.6-4.3 6.2-4.3 1.4 0 3.1.4 4.2 1.3 1.3 1.2 1.2 2.7 1.2 4.4v4c0 1.2.5 1.7 1 2.4.2.3.2.6 0 .8-.5.4-1.5 1.2-2 1.7-.2-.1-.4-.3-.5-.6l-.7-.6zm-3.5-4.2c0 .7.7 1.3 1.5 1.3.6 0 1.2-.3 1.5-.7.4-.5.4-1.2.4-1.9v-.4c-1.5 0-3.4.2-3.4 1.7z" fill="#000"/>
    <path d="M52.9 23.9c-.2-.3-.4-.3-.6-.1-1 .8-1.6 1-2.9 1-1.5 0-2.7-1-2.7-2.5 0-1.3.7-2.2 1.7-2.6 1-.4 2.3-.5 3.3-.6v-.2c0-.4 0-.9-.2-1.3-.2-.3-.6-.5-1-.5-.7 0-1.3.4-1.4 1.1-.1.3-.3.5-.5.5l-2.7-.3c-.2 0-.5-.2-.4-.6.6-3.3 3.6-4.3 6.2-4.3 1.4 0 3.1.4 4.2 1.3 1.3 1.2 1.2 2.7 1.2 4.4v4c0 1.2.5 1.7 1 2.4.2.3.2.6 0 .8-.5.4-1.5 1.2-2 1.7-.2-.1-.4-.3-.5-.6l-.7-.6zm-3.5-4.2c0 .7.7 1.3 1.5 1.3.6 0 1.2-.3 1.5-.7.4-.5.4-1.2.4-1.9v-.4c-1.5 0-3.4.2-3.4 1.7z" fill="#000"/>
</svg>
